PathFileType	4	(X/Y/Z)	/home/abdul/Desktop/myosuite/custom_workspace/IK/output/S16_12_2.trc
DataRate	CameraRate	NumFrames	NumMarkers	Units	OrigDataRate	OrigDataStartFrame	OrigNumFrames
200.0	200.0	66	3	mm	200.0	1121	1280
Frame#	Time	V_Shoulder			V_Elbow			V_Wrist		
		X1	Y1	Z1	X2	Y2	Z2	X3	Y3	Z3

1121	5.6	-152.47278560195255	628.742409326535	284.023581628554	-273.03071465006394	501.0638906629588	13.938524742728418	-241.61997506307128	337.5311792414307	23.914262401333794
1122	5.605	-152.53337289312046	628.8142011964038	283.9541699554516	-273.003792727797	501.0697372075937	13.862851109774118	-241.61336022813998	337.5365787339439	23.902685267730945
1123	5.61	-152.5927621732453	628.8849721835057	283.886374992825	-272.9780467380679	501.0750509848598	13.7892339761497	-241.60675341772708	337.5415766592331	23.891866432767493
1124	5.615	-152.65094273896057	628.9547671181972	283.8202436624345	-272.9535144121648	501.0798467426845	13.717728199474912	-241.60020474083186	337.546194953865	23.881808381808256
1125	5.62	-152.70790218743818	629.0236313485934	283.75581989542576	-272.93022785400217	501.0841405553496	13.648383222898921	-241.59376115292127	337.5504558064787	23.872510542765824
1126	5.625	-152.76362649185225	629.091610556842	283.69314459098024	-272.9082135734545	501.0879497371519	13.581243070056196	-241.5874664027726	337.5543815634171	23.863969412553473
1127	5.63	-152.81810007945398	629.1587505744343	283.6322555850158	-272.8874925382928	501.09129275484713	13.516346358617277	-241.5813609954291	337.5579946376249	23.856178690349687
1128	5.635	-152.87130591204382	629.2250971971762	283.5731876287934	-272.8680802439203	501.0941891392067	13.453726331673138	-241.575482170693	337.5613174210204	23.84912941679844
1129	5.64	-152.92322556862817	629.2906960004351	283.515972377254	-272.84998680006174	501.0966593960078	13.393410906147597	-241.5698638965438	337.5643722005267	23.84281011828493
1130	5.645	-152.97383933005014	629.3555921552842	283.46063838687945	-272.83321703352067	501.0987249167726	13.335422737393767	-241.5645368768362	337.56718107792994	23.83720695544529
1131	5.65	-153.0231262653873	629.419830246151	283.40721112284206	-272.81777060609016	501.1004078895655	13.279779299097477	-241.55952857260417	337.5697658937102	23.83230387509004
1132	5.655	-153.07106431991224	629.4834540905805	283.3557129751785	-272.803642146672	501.1017312101461	13.226492977583032	-241.55486323627252	337.572148154973	23.82808276474502
1133	5.66	-153.11763040441522	629.5465065617065	283.30616328369734	-272.7908213966421	501.10271839376867	13.175571179594595	-241.55056195805642	337.5743489675884	23.824523609039247
1134	5.665	-153.16280048569365	629.6090294140198	283.258578371306	-272.77929336748036	501.1033934879042	13.127016452609631	-241.54664272381132	337.57638897262683	23.821604647197823
1135	5.67	-153.2065496780165	629.6710631130121	283.2129715854168	-272.7690385096753	501.10378098615263	13.080826616729262	-241.54312048358406	337.5782882871615	23.819302530927423
1136	5.675	-153.24885233537807	629.7326466692534	283.1693533470731	-272.76003289190686	501.10390574359803	13.036994907183715	-241.54000723010395	337.5800664494882	23.817592482013744
1137	5.68	-153.28968214436034	629.7938174774578	283.12773120741394	-272.75224838950965	501.1037928938459	12.995510126489439	-241.53731208644726	337.58174236879654	23.816448448983103
1138	5.685	-153.32901221742932	629.8546111610657	283.0881099110793	-272.7456528812239	501.1034677679694	12.956356805297238	-241.53504140210524	337.58333427931035	23.81584326221456
1139	5.69	-153.36681518649672	629.9150614228612	283.0504914661404	-272.74021045324923	501.1029558155723	12.919515370978283	-241.53319885668677	337.5848596988945	23.815748786923947
1140	5.695	-153.40306329658475	629.9751999021215	283.0148752201256	-272.7358816096279	501.10228252816376	12.884962323006336	-241.53178557048847	337.5863353921129	23.816136073477214
1141	5.7	-153.43772849943846	630.0350560387733	282.9812579416993	-272.73262348800273	501.1014733650238	12.8526704142101	-241.53080022117192	337.5877773377047	23.81697550452683
1142	5.705	-153.47078254693534	630.0946569450153	282.94963390754043	-272.7303900798152	501.10055368172004	12.822608836988799	-241.53023916579644	337.5892007004314	23.818236938502
1143	5.71	-153.50219708415105	630.154027284838	282.91999499395814	-272.7291324540301	501.09954866142016	12.794743413606742	-241.53009656746755	337.59061980723175	23.81988984902049
1144	5.715	-153.53194374194436	630.2131891618508	282.8923307727748	-272.72879898350345	501.0984832491294	12.769036789708398	-241.53036452587483	337.59204812761106	23.82190345982704
1145	5.72	-153.55999422893296	630.2721620158048	282.86662861100206	-272.72933557313945	501.09738208896164	12.74544863022409	-241.53103321100951	337.59349825817367	23.824246874900446
1146	5.725	-153.58632042273723	630.3309625281686	282.8428737738305	-272.73068588901276	501.0962694645391	12.723935816867538	-241.53209099936987	337.5949819111987	23.82688920340823
1147	5.73	-153.61089446037636	630.3896045370896	282.82104953045354	-272.73279158766934	501.0951692425966	12.704452646459858	-241.53352461198347	337.59650990714704	23.829799679224223
1148	5.735	-153.6336888277077	630.4480989620517	282.80113726224505	-272.73559254485525	501.0941048198505	12.686951029349924	-241.53531925359653	337.5980921709742	23.83294777476035
1149	5.74	-153.65467644780588	630.5064537385033	282.78311657281256	-272.7390270829581	501.0930990731742	12.671380687237924	-241.53745875240497	337.59973773211794	23.83630330889914
1150	5.745	-153.6738307681851	630.5646737627058	282.7669653994515	-272.7430321964898	501.0921743131091	12.657689349747214	-241.53992569972647	337.6014547280166	23.839836548848048
1151	5.75	-153.69112584677336	630.6227608470241	282.75266012553055	-272.7475437749762	501.0913522407209	12.645822949128851	-241.54270158903893	337.60325041100714	23.84351830577021
1152	5.755	-153.706536436553	630.680713685846	282.74017569334575	-272.75249682266156	501.09065390779756	12.635725812523255	-241.5457669538388	337.6051311584439	23.84732002407906
1153	5.76	-153.72003806878791	630.7385278322926	282.7294857169898	-272.7578256744783	501.09009968037157	12.627340851244	-241.5491015038001	337.6071024858742	23.851213864315838
1154	5.765	-153.73160713476125	630.7961956858452	282.7205625947913	-272.7634642077716	501.0897092055329	12.620609746589441	-241.55268425874522	337.60916906309643	23.8551727795594
1155	5.77	-153.74122096595377	630.8537064909864	282.7133776208918	-272.7693460493145	501.0895013814878	12.615473131728674	-241.55649367996705	337.6113347329268	23.859170585347307
1156	5.775	-153.74885791259578	630.9110463469209	282.7079010955409	-272.77540477718435	501.08949433080585	12.611870769248636	-241.56050779847396	337.61360253249256	23.863182023114916
1157	5.78	-153.75449742053033	630.9681982284077	282.70410243370304	-272.78157411711805	501.08970537678465	12.60974172398922	-241.5647043397571	337.6159747168675	23.86718281718622
1158	5.785	-153.75812010632808	631.0251420177043	282.70195027158513	-272.7877881329994	501.0901510228531	12.609024530832336	-241.56906084471245	337.6184527848632	23.871149725375297
1159	5.79	-153.75970783059793	631.0818545475933	282.7014125707129	-272.7939814111717	501.0908469349232	12.609657357149295	-241.57355478637976	337.62103750678637	23.875060583281474
1160	5.795	-153.75924376943883	631.1383096554237	282.7024567191971	-272.8000892383064	501.0918079265907	12.611578159648019	-241.57816368219042	337.6237289539728	23.878894342383653
1161	5.8	-153.75671248398166	631.1944782480755	282.7050496298552	-272.80604777259447	501.0930479470812	12.614724835397599	-241.58286520144827	337.626526529907	23.88263110206043
1162	5.805	-153.75209998797052	631.250328377714	282.70915783486794	-272.81179420806257	501.09458007182377	12.61903536684231	-241.58763726779588	337.62942900273873	23.88625213568239
1163	5.81	-153.7453938133344	631.3058253281765	282.7147475766765	-272.8172669318473	501.09641649553714	12.624447960650333	-241.5924581564489	337.63243453900776	23.88973991094091
1164	5.815	-153.73658307370033	631.3609317117986	282.7217848948424	-272.8224056742935	501.0985685277026	12.63090118027393	-241.5973065860107	337.6355407383898	23.893078104594608
1165	5.82	-153.72565852579962	631.4156075764538	282.730235708619	-272.8271516517719	501.1010465902958	12.638334072127623	-241.60216180470692	337.63874466928064	23.896251611829634
1166	5.825	-153.7126126287186	631.4698105225558	282.7400658950017	-272.83144770213795	501.10386021764737	12.646686285319106	-241.60700367090888	337.642042905037	23.899246550443877
1167	5.83	-153.69743960094436	631.5234958297324	282.7512413620521	-272.83523841277963	501.10701805830047	12.655898184893848	-241.61181272784	337.64543156069817	23.902050260077097
1168	5.835	-153.68013547515378	631.5766165928593	282.7637281173102	-272.8384702412256	501.11052787873064	12.665910958578854	-241.61657027238738	337.64890633001653	23.904651296719933
1169	5.84	-153.6606981506949	631.629123867105	282.7774923311379	-272.84109162830686	501.1143965687963	12.67666671703379	-241.62125841796478	337.65246252263	23.90703942274391
1170	5.845	-153.63912744370458	631.6809668216148	282.79250039485754	-272.8430531038839	501.1186301487861	12.688108587638443	-241.6258601513976	337.6560951012161	23.90920559270253
1171	5.85	-153.61542513480654	631.7320929014278	282.8087189735775	-272.84430738516915	501.1232337779344	12.700180801864615	-241.63035938382455	337.6597987184723	23.91114193515989
1172	5.855	-153.58959501432972	631.782447997199	282.8261150536188	-272.84480946769145	501.12821176427553	12.712828776297783	-241.6347409956329	337.66356775377517	23.912841730808342
1173	5.86	-153.56164292498417	631.8319766222675	282.844655984484	-272.8445167089603	501.133567575713	12.725999187389508	-241.63899087546514	337.66739634937744	23.914299387140574
1174	5.865	-153.53157680192885	631.8806220965879	282.8643095153332	-272.8433889049025	501.1393038521835	12.739640040035432	-241.6430959533559	337.67127844600924	23.9155104099439
1175	5.87	-153.49940671016128	631.9283267370165	282.8850438259584	-272.8413883591525	501.14542241879917	12.753700730086049	-241.64704422807623	337.67520781775835	23.916471371885628
1176	5.875	-153.46514487915582	631.9750320534196	282.90682755227095	-272.8384799452881	501.15192429985876	12.768132100908304	-241.65082478878176	337.6791781061126	23.917179878458473
1177	5.88	-153.42880573467326	632.0206789500494	282.9296298063423	-272.834631162107	501.158809733623	12.7828864941254	-241.6544278310778	337.68318285305526	23.917634531553773
1178	5.885	-153.39040592766005	632.0652079316092	282.95342019106243	-272.82981218204964	501.1660781877563	12.797917794670314	-241.65784466763003	337.6872155331133	23.9178348909278
1179	5.89	-153.34996436015203	632.1085593134102	282.97816880950353	-272.8239958928754	501.17372837534293	12.813181470295309	-241.6610677334654	337.6912695842677	23.91778143382323
1180	5.895	-153.30750220809253	632.1506734350028	283.0038462691011	-272.8171579327031	501.1817582713943	12.828634605685458	-241.66409058612172	337.69533843764304	23.91747551300326
1181	5.9	-153.26304294097142	632.1914908766463	283.0304236807869	-272.8092767185301	501.1901651297687	12.844235931328807	-241.6669079008161	337.69941554590366	23.916919313450634
1182	5.905	-153.21661233818682	632.2309526779638	283.057872653231	-272.8003334683449	501.1989455004359	12.85994584729955	-241.66951546081603	337.7034944102917	23.91611580797737
1183	5.91	-153.16823850202812	632.2690005581163	283.0861652823697	-272.79031221694754	501.2080952470234	12.875726442113486	-241.67191014320687	337.7075686062522	23.915068711984006
1184	5.915	-153.11795186717447	632.3055771368114	283.11527413642074	-272.77919982559496	501.2176095645899	12.891541506817148	-241.67408990025953	337.71163180759925	23.913782437599217
1185	5.92	-153.06578520660008	632.3406261554545	283.14517223660397	-272.7669859855847	501.22748299758143	12.907356544473595	-241.67605373661092	337.7156778091854	23.912262047421894
1186	5.925	-153.01177363377442	632.3740926977357	283.17583303380695	-272.75366321589195	501.2377094579289	12.923138775208757	-241.67780168247828	337.7197005480461	23.91051320807879
